# xmcd
#
# Track frame offsets:
#	150
#	14594
#	35104
#	53479
#	65095
#	81140
#	100918
#	116428
#	133441
#	147648
#	164066
#
# Disc length: 2413 seconds
#
# Revision: 3
# Processed by: cddbd v1.5.2PL0 Copyright (c) Steve Scherf et al.
# Submitted via: EZCDAudioConverter 2.1.5.1
#
DISCID=a8096b0b
DTITLE=Melissa Horn - Innan Jag Kände Dig
DYEAR=2011
DGENRE=Swedish Pop/Blues
TTITLE0=Destruktiv Blues
TTITLE1=Jag Saknar Dig Mindre Och Mindre
TTITLE2=Om Du Letar Efter Nån
TTITLE3=Nåt Annat Ãn Det Hãr
TTITLE4=Under Löven
TTITLE5=Du Är Nog Den
TTITLE6=Dom Som Blãndats Av Ljuset
TTITLE7=Mardrömmar
TTITLE8=På Låtsas
TTITLE9=Innan Jag Kãnde Dig
TTITLE10=Det Känns Ännu Sämre Nu
EXTD=
EXTT0=
EXTT1=
EXTT2=
EXTT3=
EXTT4=
EXTT5=
EXTT6=
EXTT7=
EXTT8=
EXTT9=
EXTT10=
PLAYORDER=
